<svg width="244" height="237" viewBox="0 0 244 237" fill="none" xmlns="http://www.w3.org/2000/svg">
<rect x="2.5" y="2.5" width="239" height="231.538" rx="115.769" fill="#FFD25D"/>
<rect x="2.5" y="2.5" width="239" height="231.538" rx="115.769" stroke="white" stroke-width="5"/>
<path d="M107.29 99.05C104.357 99.05 101.79 98.6167 99.5899 97.75C97.4233 96.8833 95.7233 95.6167 94.4899 93.95C93.2899 92.2833 92.6899 90.25 92.6899 87.85C92.6899 86.3167 92.9399 84.9667 93.4399 83.8C93.9399 82.6 94.6399 81.5833 95.5399 80.75C96.4733 79.9167 97.5566 79.2667 98.7899 78.8V78.15C97.8566 77.75 97.0066 77.2167 96.2399 76.55C95.4733 75.85 94.8733 75 94.4399 74C94.0066 73 93.7899 71.8333 93.7899 70.5C93.7899 68.2333 94.3733 66.3667 95.5399 64.9C96.7399 63.4333 98.3566 62.3333 100.39 61.6C102.457 60.8333 104.757 60.45 107.29 60.45C109.89 60.45 112.207 60.8333 114.24 61.6C116.273 62.3333 117.873 63.4333 119.04 64.9C120.207 66.3667 120.79 68.2333 120.79 70.5C120.79 71.8333 120.573 73 120.14 74C119.74 75 119.157 75.85 118.39 76.55C117.623 77.2167 116.757 77.75 115.79 78.15V78.8C117.023 79.2667 118.107 79.9167 119.04 80.75C119.973 81.5833 120.69 82.6 121.19 83.8C121.69 84.9667 121.94 86.3167 121.94 87.85C121.94 90.25 121.323 92.2833 120.09 93.95C118.89 95.6167 117.19 96.8833 114.99 97.75C112.823 98.6167 110.257 99.05 107.29 99.05ZM107.29 92.3C108.657 92.3 109.84 92.1 110.84 91.7C111.84 91.3 112.623 90.7 113.19 89.9C113.757 89.0667 114.04 88.0667 114.04 86.9C114.04 85.7333 113.757 84.7667 113.19 84C112.657 83.2 111.873 82.6 110.84 82.2C109.84 81.7667 108.657 81.55 107.29 81.55C105.957 81.55 104.773 81.7667 103.74 82.2C102.74 82.6 101.973 83.2 101.44 84C100.907 84.7667 100.64 85.7333 100.64 86.9C100.64 88.0667 100.907 89.0667 101.44 89.9C101.973 90.7 102.74 91.3 103.74 91.7C104.773 92.1 105.957 92.3 107.29 92.3ZM107.29 75.5C109.023 75.5 110.39 75.15 111.39 74.45C112.39 73.7167 112.89 72.6667 112.89 71.3C112.89 69.9333 112.39 68.9 111.39 68.2C110.39 67.5 109.023 67.15 107.29 67.15C105.557 67.15 104.19 67.5167 103.19 68.25C102.19 68.95 101.69 69.9667 101.69 71.3C101.69 72.6667 102.19 73.7167 103.19 74.45C104.223 75.15 105.59 75.5 107.29 75.5ZM135.34 93.35V68.2H142.44V93.35H135.34ZM126.49 84.05V77.55H151.34V84.05H126.49Z" fill="#333931"/>
<path d="M75.7631 126.4L69.9631 115.25H72.5131L77.4131 124.8L76.4631 124.525H79.4131L78.4131 124.8L83.0131 115.25H85.4131L79.9631 126.4H75.7631ZM76.6631 133.5V125.9H79.0631V133.5H76.6631ZM92.4551 133.95C91.2885 133.95 90.2801 133.75 89.4301 133.35C88.5801 132.95 87.8885 132.425 87.3551 131.775C86.8218 131.108 86.4218 130.367 86.1551 129.55C85.9051 128.733 85.7801 127.9 85.7801 127.05V126.6C85.7801 125.733 85.9051 124.892 86.1551 124.075C86.4218 123.258 86.8218 122.525 87.3551 121.875C87.8885 121.208 88.5635 120.683 89.3801 120.3C90.2135 119.9 91.1885 119.7 92.3051 119.7C93.7551 119.7 94.9468 120.017 95.8801 120.65C96.8301 121.267 97.5301 122.067 97.9801 123.05C98.4468 124.033 98.6801 125.083 98.6801 126.2V127.275H86.8301V125.475H96.9301L96.3801 126.45C96.3801 125.5 96.2301 124.683 95.9301 124C95.6301 123.3 95.1801 122.758 94.5801 122.375C93.9801 121.992 93.2218 121.8 92.3051 121.8C91.3551 121.8 90.5635 122.017 89.9301 122.45C89.3135 122.883 88.8468 123.475 88.5301 124.225C88.2301 124.975 88.0801 125.842 88.0801 126.825C88.0801 127.775 88.2301 128.633 88.5301 129.4C88.8468 130.15 89.3301 130.75 89.9801 131.2C90.6301 131.633 91.4551 131.85 92.4551 131.85C93.5051 131.85 94.3551 131.617 95.0051 131.15C95.6718 130.683 96.0718 130.142 96.2051 129.525H98.4551C98.2718 130.442 97.9051 131.233 97.3551 131.9C96.8051 132.567 96.1135 133.075 95.2801 133.425C94.4468 133.775 93.5051 133.95 92.4551 133.95ZM110.163 133.5V129.5H109.763V124.875C109.763 123.958 109.521 123.267 109.038 122.8C108.571 122.333 107.879 122.1 106.963 122.1C106.446 122.1 105.913 122.108 105.363 122.125C104.813 122.142 104.288 122.158 103.788 122.175C103.288 122.192 102.854 122.217 102.488 122.25V120.15C102.854 120.117 103.238 120.092 103.638 120.075C104.054 120.042 104.479 120.025 104.913 120.025C105.346 120.008 105.763 120 106.163 120C107.529 120 108.646 120.167 109.513 120.5C110.379 120.817 111.021 121.342 111.438 122.075C111.854 122.808 112.063 123.8 112.063 125.05V133.5H110.163ZM105.788 133.85C104.788 133.85 103.921 133.683 103.188 133.35C102.471 133 101.913 132.5 101.513 131.85C101.129 131.2 100.938 130.417 100.938 129.5C100.938 128.55 101.146 127.758 101.563 127.125C101.996 126.492 102.621 126.017 103.438 125.7C104.254 125.367 105.238 125.2 106.388 125.2H110.013V127H106.288C105.321 127 104.579 127.233 104.063 127.7C103.546 128.167 103.288 128.767 103.288 129.5C103.288 130.233 103.546 130.825 104.063 131.275C104.579 131.725 105.321 131.95 106.288 131.95C106.854 131.95 107.396 131.85 107.913 131.65C108.429 131.433 108.854 131.083 109.188 130.6C109.538 130.1 109.729 129.417 109.763 128.55L110.413 129.5C110.329 130.45 110.096 131.25 109.713 131.9C109.346 132.533 108.829 133.017 108.163 133.35C107.513 133.683 106.721 133.85 105.788 133.85ZM116.468 133.5V120.15H118.368V125.65H118.268C118.268 123.7 118.693 122.275 119.543 121.375C120.409 120.458 121.701 120 123.418 120H123.868V122.15H123.018C121.684 122.15 120.659 122.508 119.943 123.225C119.226 123.925 118.868 124.942 118.868 126.275V133.5H116.468ZM131.097 133.9C129.347 133.9 127.988 133.525 127.022 132.775C126.072 132.025 125.58 131 125.547 129.7H127.797C127.83 130.217 128.088 130.708 128.572 131.175C129.072 131.625 129.913 131.85 131.097 131.85C132.163 131.85 132.98 131.642 133.547 131.225C134.113 130.792 134.397 130.267 134.397 129.65C134.397 129.1 134.188 128.675 133.772 128.375C133.355 128.058 132.68 127.85 131.747 127.75L130.297 127.6C129.03 127.467 127.997 127.092 127.197 126.475C126.397 125.842 125.997 124.958 125.997 123.825C125.997 122.975 126.213 122.25 126.647 121.65C127.08 121.033 127.68 120.567 128.447 120.25C129.213 119.917 130.097 119.75 131.097 119.75C132.597 119.75 133.813 120.083 134.747 120.75C135.68 121.417 136.163 122.408 136.197 123.725H133.947C133.93 123.192 133.68 122.742 133.197 122.375C132.73 121.992 132.03 121.8 131.097 121.8C130.163 121.8 129.455 121.992 128.972 122.375C128.488 122.758 128.247 123.242 128.247 123.825C128.247 124.325 128.413 124.725 128.747 125.025C129.097 125.325 129.663 125.517 130.447 125.6L131.897 125.75C133.33 125.9 134.48 126.3 135.347 126.95C136.213 127.583 136.647 128.483 136.647 129.65C136.647 130.483 136.405 131.225 135.922 131.875C135.455 132.508 134.805 133.008 133.972 133.375C133.138 133.725 132.18 133.9 131.097 133.9ZM154.338 133.95C152.705 133.95 151.297 133.658 150.113 133.075C148.93 132.492 147.955 131.725 147.188 130.775C146.422 129.825 145.847 128.808 145.463 127.725C145.097 126.642 144.913 125.6 144.913 124.6V124.05C144.913 122.967 145.105 121.875 145.488 120.775C145.872 119.675 146.455 118.675 147.238 117.775C148.022 116.858 148.997 116.125 150.163 115.575C151.347 115.025 152.738 114.75 154.338 114.75C155.938 114.75 157.322 115.025 158.488 115.575C159.672 116.125 160.655 116.858 161.438 117.775C162.222 118.675 162.805 119.675 163.188 120.775C163.572 121.875 163.763 122.967 163.763 124.05V124.6C163.763 125.6 163.572 126.642 163.188 127.725C162.822 128.808 162.255 129.825 161.488 130.775C160.722 131.725 159.747 132.492 158.563 133.075C157.38 133.658 155.972 133.95 154.338 133.95ZM154.338 131.7C155.405 131.7 156.363 131.5 157.213 131.1C158.08 130.7 158.813 130.158 159.413 129.475C160.013 128.775 160.472 127.992 160.788 127.125C161.105 126.242 161.263 125.317 161.263 124.35C161.263 123.333 161.105 122.383 160.788 121.5C160.472 120.617 160.013 119.842 159.413 119.175C158.813 118.492 158.08 117.958 157.213 117.575C156.363 117.192 155.405 117 154.338 117C153.272 117 152.305 117.192 151.438 117.575C150.588 117.958 149.863 118.492 149.263 119.175C148.663 119.842 148.205 120.617 147.888 121.5C147.572 122.383 147.413 123.333 147.413 124.35C147.413 125.317 147.572 126.242 147.888 127.125C148.205 127.992 148.663 128.775 149.263 129.475C149.863 130.158 150.588 130.7 151.438 131.1C152.305 131.5 153.272 131.7 154.338 131.7ZM167.794 133.5V119.475C167.794 117.992 168.186 116.9 168.969 116.2C169.753 115.5 170.903 115.15 172.419 115.15H174.069V117.15H172.019C171.403 117.15 170.928 117.325 170.594 117.675C170.261 118.008 170.094 118.475 170.094 119.075V133.5H167.794ZM165.944 122.1V120.3H174.319V122.1H165.944Z" fill="#333931"/>
<path d="M47.4307 172V153.75H49.8807V172H47.4307ZM49.3807 172V169.8H58.2307V172H49.3807ZM49.3807 163.825V161.625H57.4557V163.825H49.3807ZM49.3807 155.95V153.75H57.9807V155.95H49.3807ZM60.4709 172L65.2459 164.975L65.1709 165.475L60.6959 158.65H63.3459L66.5709 163.675H66.9209L69.9709 158.65H72.4459L68.2209 165.3L68.2959 164.85L73.2959 172H70.6459L66.8959 166.575H66.5459L62.9459 172H60.4709ZM76.0602 177V158.65H77.9602V164.425L77.5102 164.375C77.5935 162.942 77.8935 161.775 78.4102 160.875C78.9435 159.958 79.6352 159.283 80.4852 158.85C81.3352 158.417 82.2602 158.2 83.2602 158.2C84.2268 158.2 85.1018 158.383 85.8852 158.75C86.6852 159.117 87.3685 159.617 87.9352 160.25C88.5018 160.883 88.9352 161.617 89.2352 162.45C89.5352 163.283 89.6852 164.167 89.6852 165.1V165.55C89.6852 166.483 89.5268 167.367 89.2102 168.2C88.8935 169.033 88.4435 169.767 87.8602 170.4C87.2935 171.033 86.6102 171.533 85.8102 171.9C85.0268 172.267 84.1602 172.45 83.2102 172.45C82.2602 172.45 81.3518 172.242 80.4852 171.825C79.6185 171.408 78.9018 170.733 78.3352 169.8C77.7685 168.867 77.4435 167.642 77.3602 166.125L78.4602 168.125V177H76.0602ZM82.8352 170.35C83.7352 170.35 84.5185 170.142 85.1852 169.725C85.8518 169.292 86.3685 168.7 86.7352 167.95C87.1018 167.183 87.2852 166.308 87.2852 165.325C87.2852 164.325 87.1018 163.45 86.7352 162.7C86.3685 161.95 85.8518 161.367 85.1852 160.95C84.5185 160.517 83.7352 160.3 82.8352 160.3C82.0352 160.3 81.2935 160.483 80.6102 160.85C79.9268 161.2 79.3768 161.717 78.9602 162.4C78.5602 163.067 78.3602 163.875 78.3602 164.825V165.975C78.3602 166.892 78.5685 167.675 78.9852 168.325C79.4018 168.975 79.9518 169.475 80.6352 169.825C81.3185 170.175 82.0518 170.35 82.8352 170.35ZM98.9715 172.45C97.8048 172.45 96.7965 172.25 95.9465 171.85C95.0965 171.45 94.4048 170.925 93.8715 170.275C93.3381 169.608 92.9381 168.867 92.6715 168.05C92.4215 167.233 92.2965 166.4 92.2965 165.55V165.1C92.2965 164.233 92.4215 163.392 92.6715 162.575C92.9381 161.758 93.3381 161.025 93.8715 160.375C94.4048 159.708 95.0798 159.183 95.8965 158.8C96.7298 158.4 97.7048 158.2 98.8215 158.2C100.271 158.2 101.463 158.517 102.396 159.15C103.346 159.767 104.046 160.567 104.496 161.55C104.963 162.533 105.196 163.583 105.196 164.7V165.775H93.3465V163.975H103.446L102.896 164.95C102.896 164 102.746 163.183 102.446 162.5C102.146 161.8 101.696 161.258 101.096 160.875C100.496 160.492 99.7382 160.3 98.8215 160.3C97.8715 160.3 97.0798 160.517 96.4465 160.95C95.8298 161.383 95.3631 161.975 95.0465 162.725C94.7465 163.475 94.5965 164.342 94.5965 165.325C94.5965 166.275 94.7465 167.133 95.0465 167.9C95.3631 168.65 95.8465 169.25 96.4965 169.7C97.1465 170.133 97.9715 170.35 98.9715 170.35C100.021 170.35 100.871 170.117 101.521 169.65C102.188 169.183 102.588 168.642 102.721 168.025H104.971C104.788 168.942 104.421 169.733 103.871 170.4C103.321 171.067 102.63 171.575 101.796 171.925C100.963 172.275 100.021 172.45 98.9715 172.45ZM108.604 172V158.65H110.504V164.15H110.404C110.404 162.2 110.829 160.775 111.679 159.875C112.546 158.958 113.837 158.5 115.554 158.5H116.004V160.65H115.154C113.821 160.65 112.796 161.008 112.079 161.725C111.362 162.425 111.004 163.442 111.004 164.775V172H108.604ZM119.508 172V158.65H121.908V172H119.508ZM117.458 160.55V158.65H121.908V160.55H117.458ZM120.183 156.5C119.65 156.5 119.25 156.358 118.983 156.075C118.733 155.792 118.608 155.433 118.608 155C118.608 154.567 118.733 154.208 118.983 153.925C119.25 153.642 119.65 153.5 120.183 153.5C120.716 153.5 121.108 153.642 121.358 153.925C121.625 154.208 121.758 154.567 121.758 155C121.758 155.433 121.625 155.792 121.358 156.075C121.108 156.358 120.716 156.5 120.183 156.5ZM132.223 172.45C131.057 172.45 130.048 172.25 129.198 171.85C128.348 171.45 127.657 170.925 127.123 170.275C126.59 169.608 126.19 168.867 125.923 168.05C125.673 167.233 125.548 166.4 125.548 165.55V165.1C125.548 164.233 125.673 163.392 125.923 162.575C126.19 161.758 126.59 161.025 127.123 160.375C127.657 159.708 128.332 159.183 129.148 158.8C129.982 158.4 130.957 158.2 132.073 158.2C133.523 158.2 134.715 158.517 135.648 159.15C136.598 159.767 137.298 160.567 137.748 161.55C138.215 162.533 138.448 163.583 138.448 164.7V165.775H126.598V163.975H136.698L136.148 164.95C136.148 164 135.998 163.183 135.698 162.5C135.398 161.8 134.948 161.258 134.348 160.875C133.748 160.492 132.99 160.3 132.073 160.3C131.123 160.3 130.332 160.517 129.698 160.95C129.082 161.383 128.615 161.975 128.298 162.725C127.998 163.475 127.848 164.342 127.848 165.325C127.848 166.275 127.998 167.133 128.298 167.9C128.615 168.65 129.098 169.25 129.748 169.7C130.398 170.133 131.223 170.35 132.223 170.35C133.273 170.35 134.123 170.117 134.773 169.65C135.44 169.183 135.84 168.642 135.973 168.025H138.223C138.04 168.942 137.673 169.733 137.123 170.4C136.573 171.067 135.882 171.575 135.048 171.925C134.215 172.275 133.273 172.45 132.223 172.45ZM141.856 172V158.65H143.756V164.375H143.456C143.456 163.058 143.631 161.95 143.981 161.05C144.348 160.133 144.898 159.442 145.631 158.975C146.364 158.492 147.289 158.25 148.406 158.25H148.506C150.189 158.25 151.431 158.775 152.231 159.825C153.048 160.875 153.456 162.392 153.456 164.375V172H151.056V163.875C151.056 162.842 150.764 162.017 150.181 161.4C149.598 160.767 148.798 160.45 147.781 160.45C146.731 160.45 145.881 160.775 145.231 161.425C144.581 162.075 144.256 162.942 144.256 164.025V172H141.856ZM163.572 172.45C162.422 172.45 161.422 172.25 160.572 171.85C159.739 171.45 159.047 170.917 158.497 170.25C157.947 169.567 157.531 168.817 157.247 168C156.981 167.183 156.847 166.367 156.847 165.55V165.1C156.847 164.25 156.981 163.417 157.247 162.6C157.531 161.783 157.947 161.05 158.497 160.4C159.064 159.733 159.764 159.2 160.597 158.8C161.431 158.4 162.406 158.2 163.522 158.2C164.639 158.2 165.639 158.408 166.522 158.825C167.422 159.242 168.139 159.833 168.672 160.6C169.222 161.35 169.531 162.242 169.597 163.275H167.297C167.181 162.442 166.797 161.75 166.147 161.2C165.497 160.633 164.622 160.35 163.522 160.35C162.572 160.35 161.781 160.567 161.147 161C160.514 161.433 160.039 162.025 159.722 162.775C159.406 163.525 159.247 164.375 159.247 165.325C159.247 166.242 159.406 167.083 159.722 167.85C160.039 168.6 160.514 169.2 161.147 169.65C161.797 170.083 162.606 170.3 163.572 170.3C164.322 170.3 164.972 170.167 165.522 169.9C166.072 169.633 166.514 169.275 166.847 168.825C167.181 168.375 167.381 167.867 167.447 167.3H169.747C169.697 168.35 169.389 169.258 168.822 170.025C168.272 170.792 167.539 171.392 166.622 171.825C165.722 172.242 164.706 172.45 163.572 172.45ZM178.683 172.45C177.517 172.45 176.508 172.25 175.658 171.85C174.808 171.45 174.117 170.925 173.583 170.275C173.05 169.608 172.65 168.867 172.383 168.05C172.133 167.233 172.008 166.4 172.008 165.55V165.1C172.008 164.233 172.133 163.392 172.383 162.575C172.65 161.758 173.05 161.025 173.583 160.375C174.117 159.708 174.792 159.183 175.608 158.8C176.442 158.4 177.417 158.2 178.533 158.2C179.983 158.2 181.175 158.517 182.108 159.15C183.058 159.767 183.758 160.567 184.208 161.55C184.675 162.533 184.908 163.583 184.908 164.7V165.775H173.058V163.975H183.158L182.608 164.95C182.608 164 182.458 163.183 182.158 162.5C181.858 161.8 181.408 161.258 180.808 160.875C180.208 160.492 179.45 160.3 178.533 160.3C177.583 160.3 176.792 160.517 176.158 160.95C175.542 161.383 175.075 161.975 174.758 162.725C174.458 163.475 174.308 164.342 174.308 165.325C174.308 166.275 174.458 167.133 174.758 167.9C175.075 168.65 175.558 169.25 176.208 169.7C176.858 170.133 177.683 170.35 178.683 170.35C179.733 170.35 180.583 170.117 181.233 169.65C181.9 169.183 182.3 168.642 182.433 168.025H184.683C184.5 168.942 184.133 169.733 183.583 170.4C183.033 171.067 182.342 171.575 181.508 171.925C180.675 172.275 179.733 172.45 178.683 172.45ZM192.691 172.4C190.941 172.4 189.583 172.025 188.616 171.275C187.666 170.525 187.174 169.5 187.141 168.2H189.391C189.424 168.717 189.683 169.208 190.166 169.675C190.666 170.125 191.508 170.35 192.691 170.35C193.758 170.35 194.574 170.142 195.141 169.725C195.708 169.292 195.991 168.767 195.991 168.15C195.991 167.6 195.783 167.175 195.366 166.875C194.949 166.558 194.274 166.35 193.341 166.25L191.891 166.1C190.624 165.967 189.591 165.592 188.791 164.975C187.991 164.342 187.591 163.458 187.591 162.325C187.591 161.475 187.808 160.75 188.241 160.15C188.674 159.533 189.274 159.067 190.041 158.75C190.808 158.417 191.691 158.25 192.691 158.25C194.191 158.25 195.408 158.583 196.341 159.25C197.274 159.917 197.758 160.908 197.791 162.225H195.541C195.524 161.692 195.274 161.242 194.791 160.875C194.324 160.492 193.624 160.3 192.691 160.3C191.758 160.3 191.049 160.492 190.566 160.875C190.083 161.258 189.841 161.742 189.841 162.325C189.841 162.825 190.008 163.225 190.341 163.525C190.691 163.825 191.258 164.017 192.041 164.1L193.491 164.25C194.924 164.4 196.074 164.8 196.941 165.45C197.808 166.083 198.241 166.983 198.241 168.15C198.241 168.983 197.999 169.725 197.516 170.375C197.049 171.008 196.399 171.508 195.566 171.875C194.733 172.225 193.774 172.4 192.691 172.4Z" fill="#333931"/>
</svg>
